<?xml version="1.0" standalone="no"?>
<!DOCTYPE svg PUBLIC "-//W3C//DTD SVG 1.1//EN" "http://www.w3.org/Graphics/SVG/1.1/DTD/svg11.dtd" >
<svg xmlns="http://www.w3.org/2000/svg">
<metadata>Generated by IcoMoon</metadata>
<defs>
<font id="icomoon" horiz-adv-x="1024">
<font-face units-per-em="1024" ascent="960" descent="-64" />
<missing-glyph horiz-adv-x="1024" />
<glyph unicode="&#x20;" horiz-adv-x="512" d="" />
<glyph unicode="&#xe900;" glyph-name="arrow-back-outline" d="M817.664 104.662c-70.016 106.667-156.544 140.16-262.997 148.651v-61.312c0-22.784-8.875-44.203-25.003-60.331-32.256-32.256-88.619-32.043-120.448-0.213l-268.501 264.832c-8.149 8.064-12.715 18.944-12.715 30.421s4.565 22.357 12.715 30.379l268.288 264.661c32.171 32.213 88.448 32.256 120.704-0.043 16.085-16.128 24.96-37.547 24.96-60.331v-72.704c197.077-39.808 341.333-213.205 341.333-417.963v-42.667c0-18.859-12.373-35.499-30.464-40.875-4.053-1.152-8.107-1.792-12.203-1.792-14.123 0-27.563 7.040-35.669 19.285zM512.981 340.864c94.165-2.389 197.888-16.811 288.341-90.496-32.768 137.216-148.352 243.285-294.101 259.413-21.504 2.389-37.888 2.219-37.888 2.219v149.205l-237.909-234.496 237.909-234.667v149.291c0 0 31.488-0.427 43.648-0.469z" />
<glyph unicode="&#xe901;" glyph-name="arrow-back" d="M512 552.15v109.184c0 10.923-4.181 21.845-12.501 30.208-8.32 8.32-19.243 12.459-30.165 12.459s-21.845-4.139-30.165-12.459l-268.501-264.875 268.501-264.832c8.32-8.32 19.243-12.501 30.165-12.501s21.845 4.181 30.165 12.501 12.501 19.285 12.501 30.165v106.197c117.333-2.901 245.547-24.149 341.333-170.197v42.667c0 197.675-149.333 360.235-341.333 381.483z" />
<glyph unicode="&#xe902;" glyph-name="save-disk" d="M0 870.4c0 56.32 46.080 102.4 102.4 102.4h716.8l204.8-204.8v-716.8c0-56.554-45.846-102.4-102.4-102.4v0h-819.2c-56.554 0-102.4 45.846-102.4 102.4v0 819.2zM256 870.4v-307.2h512v307.2h-512zM563.2 819.2h153.6v-204.8h-153.6v204.8z" />
<glyph unicode="&#xe903;" glyph-name="palette" d="M805.888 839.27c-180.634 60.723-361.779 49.203-548.864-65.229-146.074-89.242-241.562-311.091-210.074-470.118 37.274-187.955 222.771-306.944 473.242-238.131 270.080 74.189 335.309 232.755 326.605 273.101s-136.448 84.582-87.962 179.098c60.826 118.426 160.205 58.829 203.878 83.046 43.776 24.166 27.597 176.23-156.826 238.234zM619.213 291.123c-40.858-11.162-83.098 13.107-94.362 54.221-11.315 41.216 12.698 83.507 53.555 94.669s83.046-13.005 94.362-54.221c11.264-41.114-12.698-83.507-53.555-94.669z" />
<glyph unicode="&#xe904;" glyph-name="mayorista" horiz-adv-x="1156" d="M542.471-64c-33.486 0.126-65.817 4.852-96.463 13.577l2.512-0.612c-50.196 22.872-84.46 72.606-84.46 130.342 0 37.713 14.619 72.011 38.498 97.537l-0.074-0.080c4.283 5.204 6.879 11.936 6.879 19.274 0 2.157-0.224 4.261-0.651 6.291l0.035-0.198q-117.689 307.657-237.006 614.813c-1.127 2.881-2.819 5.512-5.7 11.086l-131.531-50.733-34.762 90.005 220.596 85.245c4.322-9.207 9.207-18.164 12.84-27.622q131.531-339.413 262.122-679.138c4.607-13.643 16.635-23.57 31.162-25.041l0.155-0.013c28.959-7.863 54.324-19.443 77.244-34.448l-1.019 0.626c6.194-5.612 14.452-9.047 23.511-9.047 4.946 0 9.653 1.024 13.92 2.871l-0.227-0.088q227.924 88.94 456.225 176.69l25.054 9.834 34.699-89.817-25.93-10.021c-151.386-58.5-302.709-117.25-454.283-175.375-14.091-3.254-24.437-15.695-24.437-30.552 0-0.269 0.003-0.537 0.010-0.805l-0.001 0.040c-5.849-46.327-31.904-85.582-68.913-109.182l-0.611-0.364zM476.518 169.123c-37.486-13.404-63.827-48.613-63.827-89.973 0-12.404 2.369-24.255 6.68-35.125l-0.225 0.645c14.393-36.946 49.689-62.651 90.987-62.651 11.66 0 22.842 2.049 33.204 5.807l-0.678-0.215c37.418 14.685 63.428 50.486 63.428 92.362 0 11.911-2.104 23.33-5.961 33.907l0.219-0.688c-14.407 36.534-49.398 61.915-90.317 61.915-12.031 0-23.549-2.194-34.176-6.204l0.667 0.221zM444.637 519.183l447.769 173.057 121.322-313.858c-5.574-2.568-11.587-5.762-17.913-8.205-115.434-44.721-230.868-89.128-346.114-134.162-4.349-2.187-9.477-3.468-14.905-3.468-7.437 0-14.312 2.405-19.89 6.479l0.096-0.067c-15.278 10.268-32.943 18.645-51.815 24.208l-1.361 0.344c-14.691 2.782-26.344 13.412-30.555 27.28l-0.073 0.279c-25.555 68.897-52.487 136.855-78.856 205.251-2.631 7.015-4.885 14.531-7.704 22.861zM750.165 328.651l45.597 17.6-41.839 108.231 43.844 16.974-112.741 90.631-22.423-144.058 45.911 17.663zM582.369 960l111.864-289.431-267.634-103.408-111.801 289.306 131.531 50.796 48.604-125.831h6.263l18.039 77.791 70.526-48.854-51.172 132.47zM553.871 95.153c-6.718 18.632-24.245 31.712-44.827 31.712-5.804 0-11.365-1.040-16.507-2.944l0.329 0.107c-18.536-7.425-31.39-25.239-31.39-46.055 0-5.571 0.921-10.928 2.619-15.925l-0.103 0.349c7.187-18.259 24.667-30.947 45.112-30.947 5.904 0 11.562 1.058 16.792 2.995l-0.335-0.109c18.481 6.354 31.525 23.589 31.525 43.869 0 6.101-1.18 11.926-3.325 17.259l0.111-0.311zM553.871 95.153c2.034-5.022 3.214-10.847 3.214-16.948 0-20.281-13.044-37.515-31.2-43.772l-0.325-0.097c-4.896-1.829-10.553-2.887-16.457-2.887-20.444 0-37.925 12.688-44.998 30.619l-0.114 0.328c-1.595 4.649-2.516 10.005-2.516 15.577 0 20.816 12.854 38.63 31.057 45.937l0.333 0.118c4.813 1.797 10.374 2.838 16.178 2.838 20.582 0 38.109-13.080 44.722-31.381l0.105-0.331z" />
<glyph unicode="&#xe905;" glyph-name="heart, love, like" d="M934.176 791.52c-116.128 115.072-301.824 117.472-422.112 9.216-120.32 108.256-305.952 105.856-422.144-9.216-119.712-118.528-119.712-310.688 0-429.28 34.208-33.888 353.696-350.112 353.696-350.112 37.856-37.504 99.072-37.504 136.896 0 0 0 349.824 346.304 353.696 350.112 119.744 118.592 119.744 310.752-0.032 429.28zM888.576 407.424l-353.696-350.112c-12.576-12.512-33.088-12.512-45.6 0l-353.696 350.112c-94.4 93.44-94.4 245.472 0 338.912 91.008 90.080 237.312 93.248 333.088 7.104l43.392-39.040 43.36 39.040c95.808 86.144 242.112 83.008 333.12-7.104 94.4-93.408 94.4-245.44 0.032-338.912zM296.096 719.968c8.864 0 16-7.168 16-16s-7.168-16-16-16h-0.032c-57.408 0-103.968-46.56-103.968-103.968v-0.032c0-8.832-7.168-16-16-16s-16 7.168-16 16v0c0 75.072 60.832 135.904 135.872 135.968 0.064 0 0.064 0.032 0.128 0.032z" />
<glyph unicode="&#xe906;" glyph-name="multi-size" horiz-adv-x="963" d="M688.612 960c-31.622-41.843-81.288-68.602-137.204-68.602s-105.583 26.759-136.892 68.171l-0.313 0.431-274.408-68.602v-205.806l165.072 34.301-27.868-583.117h548.816l-27.868 583.117 165.072-34.301v205.806zM377.769 502.653c-21.767-28.8-55.954-47.219-94.442-47.219s-72.675 18.418-94.227 46.922l-0.215 0.297-188.884-47.229v-141.656l113.635 23.599-19.117-401.368h377.769l-19.27 401.368 113.635-23.599v141.656z" />
<glyph unicode="&#xe907;" glyph-name="product" d="M682.667 960c-39.334-52.048-101.113-85.333-170.667-85.333s-131.333 33.286-170.278 84.797l-0.389 0.537-341.333-85.333v-256l205.331 42.667-34.664-725.333h682.667l-34.664 725.333 205.331-42.667v256z" />
<glyph unicode="&#xe908;" glyph-name="layer-up" d="M577.975-64h-18.188c-2.194 3.852-6.144 3.755-9.752 4.876-164.62 42.472-329.094 85.236-493.812 127.22-25.015 6.339-46.958 14.629-56.222 41.058v9.118c7.703 13.846 17.586 25.517 29.324 34.981l0.226 0.176c18.773 12.678 36.133 27.355 54.126 41.106l100.791 77.19c-46.275 11.898-88.357 23.747-130.974 33.256-24.525 2.599-44.771 18.561-53.484 40.377l-0.154 0.436v9.118c10.849 18.044 25.115 32.948 42.017 44.204l0.503 0.315c34.133 25.259 67.389 51.2 100.742 77.19 14.563 9.516 27.206 20.099 38.482 31.991l0.089 0.095c-43.886 11.264-86.065 23.211-128.683 32.573-24.397 2.882-44.441 18.94-52.998 40.763l-0.152 0.441v9.070c11.185 17.854 25.533 32.669 42.394 44.045l0.517 0.329c82.456 62.854 164.279 126.488 246.833 189.196 59.538 45.202 117.029 92.891 179.005 135.070 9.118 0 43.886-4.876 52.126-6.095q221.623-38.473 443.733-75.532c24.783-0.136 46.59-12.752 59.473-31.877l0.163-0.257v-22.772c-11.765-17.012-25.321-31.652-40.675-44.169l-0.382-0.302c-41.155-38.717-82.456-77.288-126.781-118.686 30.574-5.218 57.246-8.728 83.432-14.629 30.135-6.729 66.072-1.073 84.261-36.133v-22.772c-26.553-31.419-54.776-59.596-85.201-85.244l-1.059-0.869c-25.795-25.21-52.37-49.591-81.286-76.898 40.521-6.827 76.8-13.263 113.176-19.017 23.099-0.508 43.159-13.054 54.206-31.594l0.164-0.297v-22.723c-8.331-11.995-17.615-22.424-28.002-31.634l-0.182-0.158q-192.512-180.175-384.731-360.838c-9.058-9.362-20.096-16.749-32.445-21.491l-0.616-0.208zM900.194 572.977c-38.132 6.534-71.729 11.947-105.082 18.237-11.947 2.243-18.042-4.876-25.21-11.605-54.077-50.859-108.495-101.425-162.328-152.576-9.695-10.47-23.514-17.002-38.858-17.002-5.985 0-11.738 0.994-17.102 2.825l0.372-0.11c-84.602 22.772-169.789 43.349-254.44 65.975-2.986 1.070-6.431 1.689-10.021 1.689-7.971 0-15.23-3.051-20.673-8.048l0.022 0.020c-36.328-28.574-73.143-56.369-109.763-84.602-9.789-5.735-18.006-13.050-24.573-21.689l-0.149-0.205c20.272-7.825 45.087-15.23 70.576-20.841l3.591-0.663c51.59-9.070 100.888-25.746 151.65-37.157 61.586-13.848 122.49-30.622 183.247-47.689 3.207-1.178 6.91-1.859 10.772-1.859 9.92 0 18.791 4.495 24.685 11.56l0.042 0.051c39.010 37.888 79.482 74.752 119.272 112.152 66.804 62.708 133.559 125.416 203.971 191.537zM129.755 130.316l146.286-37.888c88.6-22.967 177.298-45.592 265.752-69.193 3.075-1.045 6.618-1.648 10.301-1.648 10.106 0 19.151 4.541 25.206 11.694l0.040 0.048c78.019 74.167 156.867 147.505 235.471 221.135l87.771 82.018c-33.451 5.851-63 10.24-92.16 16.384-3.338 1.015-7.175 1.6-11.148 1.6-11.58 0-22-4.965-29.249-12.883l-0.027-0.030c-52.809-51.151-107.276-100.693-160.524-151.162-9.452-10.269-22.959-16.68-37.963-16.68-5.6 0-10.991 0.893-16.040 2.545l0.365-0.103c-85.48 22.772-171.252 44.276-256.829 66.462-8.241 2.146-15.36 4.876-23.357-1.56-46.958-36.376-93.818-72.119-144.091-110.738z" />
<glyph unicode="&#xe909;" glyph-name="layer-down" d="M1024 823.467v22.772c-13.046 19.382-34.853 31.998-59.615 32.134h-0.021q-221.818 37.059-443.733 75.532c-8.192 1.414-43.008 6.095-52.126 6.095-61.83-42.179-119.467-89.868-179.005-135.070-82.554-62.708-164.376-126.342-246.833-189.196-17.377-11.704-31.725-26.519-42.555-43.767l-0.355-0.606v-9.070c8.71-22.264 28.754-38.322 52.844-41.174l0.306-0.030c42.618-9.362 84.699-21.309 128.683-32.573-11.365-11.987-24.008-22.569-37.767-31.591l-0.804-0.495c-33.353-25.99-66.853-51.931-100.742-77.19-17.406-11.572-31.671-26.475-42.175-43.902l-0.345-0.618v-9.118c8.867-22.252 29.113-38.215 53.355-40.789l0.283-0.024c42.618-9.509 84.699-21.358 130.974-33.256l-100.791-77.19c-17.993-13.751-35.352-28.428-54.126-41.106-11.949-9.652-21.83-21.321-29.242-34.559l-0.308-0.598v-9.118c9.265-26.673 31.208-34.718 56.222-41.058 164.718-41.984 329.192-84.748 493.812-127.22 3.608-0.926 7.558-0.829 9.752-4.876h18.188c12.986 4.958 24.042 12.362 33.084 21.722l0.025 0.026q192.122 180.419 384.731 360.838c10.57 9.369 19.853 19.798 27.808 31.221l0.377 0.571v22.723c-11.211 18.836-31.27 31.382-54.298 31.889l-0.072 0.001c-36.376 5.754-72.655 12.19-113.176 19.017 28.916 27.307 55.491 51.688 81.286 76.898 31.472 26.53 59.694 54.706 85.404 85.076l0.856 1.037v22.772c-18.188 35.060-54.126 29.257-84.261 36.133-26.185 5.851-52.858 9.362-83.432 14.629 44.178 41.399 85.48 79.97 126.781 118.686 15.716 12.807 29.254 27.43 40.552 43.726l0.457 0.697zM900.194 572.928c-70.412-66.072-137.167-128.78-203.971-191.39-39.79-37.303-80.018-74.167-119.272-112.152-5.936-7.116-14.807-11.612-24.727-11.612-3.862 0-7.565 0.681-10.995 1.93l0.223-0.071c-60.757 17.067-121.661 33.841-183.247 47.689-50.761 11.41-100.059 28.087-151.65 37.157-29.079 6.274-53.894 13.679-77.897 22.739l3.73-1.235c6.716 8.844 14.934 16.159 24.332 21.682l0.391 0.212c36.571 28.233 73.435 56.027 109.763 84.602 5.42 4.977 12.679 8.028 20.65 8.028 3.59 0 7.035-0.619 10.235-1.755l-0.214 0.066c84.651-22.626 169.838-43.203 254.44-65.975 4.992-1.721 10.745-2.715 16.73-2.715 15.344 0 29.163 6.532 38.827 16.968l0.032 0.035c53.638 51.151 108.203 101.717 162.328 152.576 7.168 6.729 13.263 13.848 25.21 11.605 33.402-6.388 66.95-11.8 105.082-18.383zM543.013 502.321l-434.42 108.593 372.346 294.814 434.42-77.58z" />
<glyph unicode="&#xe90a;" glyph-name="Icon-awesome-palette" d="M408.577 949.977c-200.496-41.534-355.91-196.523-397.491-393.489l-0.587-3.324c-73.855-374.023 263.399-652.826 517.618-613.419 57.599 12.501 100.112 63.039 100.112 123.506 0 21.951-5.603 42.593-15.456 60.575l0.33-0.657c-9.323 17.887-14.792 39.063-14.792 61.517 0 74.731 60.582 135.313 135.313 135.313 0.453 0 0.905-0.002 1.356-0.007l-0.069 0.001h159.421c71.738 0.597 129.68 58.816 129.827 130.604v0.014c-1.438 281.898-230.291 509.864-512.389 509.864-36.532 0-72.171-3.823-106.539-11.091l3.346 0.592zM191.97 319.941c-35.341 0-63.99 28.649-63.99 63.99s28.649 63.99 63.99 63.99c35.341 0 63.99-28.649 63.99-63.99v0c0-0.016 0-0.034 0-0.053 0-35.312-28.626-63.937-63.937-63.937-0.019 0-0.037 0-0.056 0h0.003zM255.96 575.954c-35.341 0-63.99 28.649-63.99 63.99s28.649 63.99 63.99 63.99c35.341 0 63.99-28.649 63.99-63.99v0c0-0.016 0-0.034 0-0.053 0-35.312-28.626-63.937-63.937-63.937-0.019 0-0.037 0-0.056 0h0.003zM511.974 703.934c-35.341 0-63.99 28.649-63.99 63.99s28.649 63.99 63.99 63.99c35.341 0 63.99-28.649 63.99-63.99v0c0-0.016 0-0.034 0-0.053 0-35.312-28.626-63.937-63.937-63.937-0.019 0-0.037 0-0.056 0h0.003zM767.987 575.954c-35.341 0-63.99 28.649-63.99 63.99s28.649 63.99 63.99 63.99c35.341 0 63.99-28.649 63.99-63.99v0c0-0.016 0-0.034 0-0.053 0-35.312-28.626-63.937-63.937-63.937-0.019 0-0.037 0-0.056 0h0.003z" />
<glyph unicode="&#xe90d;" glyph-name="image" d="M959.884 832c0.040-0.034 0.082-0.076 0.116-0.116v-767.77c-0.034-0.040-0.076-0.082-0.116-0.116h-895.77c-0.040 0.034-0.082 0.076-0.114 0.116v767.772c0.034 0.040 0.076 0.082 0.114 0.114h895.77zM960 896h-896c-35.2 0-64-28.8-64-64v-768c0-35.2 28.8-64 64-64h896c35.2 0 64 28.8 64 64v768c0 35.2-28.8 64-64 64v0zM832 672c0-53.020-42.98-96-96-96s-96 42.98-96 96 42.98 96 96 96 96-42.98 96-96zM896 128h-768v128l224 384 256-320h64l224 192z" />
<glyph unicode="&#xe936;" glyph-name="price-tags" horiz-adv-x="1280" d="M1232 960h-384c-26.4 0-63.274-15.274-81.942-33.942l-476.116-476.116c-18.668-18.668-18.668-49.214 0-67.882l412.118-412.118c18.668-18.668 49.214-18.668 67.882 0l476.118 476.118c18.666 18.666 33.94 55.54 33.94 81.94v384c0 26.4-21.6 48-48 48zM992 576c-53.020 0-96 42.98-96 96s42.98 96 96 96 96-42.98 96-96-42.98-96-96-96zM128 416l544 544h-80c-26.4 0-63.274-15.274-81.942-33.942l-476.116-476.116c-18.668-18.668-18.668-49.214 0-67.882l412.118-412.118c18.668-18.668 49.214-18.668 67.882 0l30.058 30.058-416 416z" />
<glyph unicode="&#xe93f;" glyph-name="credit-card" d="M928 832h-832c-52.8 0-96-43.2-96-96v-576c0-52.8 43.2-96 96-96h832c52.8 0 96 43.2 96 96v576c0 52.8-43.2 96-96 96zM96 768h832c17.346 0 32-14.654 32-32v-96h-896v96c0 17.346 14.654 32 32 32zM928 128h-832c-17.346 0-32 14.654-32 32v288h896v-288c0-17.346-14.654-32-32-32zM128 320h64v-128h-64zM256 320h64v-128h-64zM384 320h64v-128h-64z" />
<glyph unicode="&#xe986;" glyph-name="search" d="M992.262 88.604l-242.552 206.294c-25.074 22.566-51.89 32.926-73.552 31.926 57.256 67.068 91.842 154.078 91.842 249.176 0 212.078-171.922 384-384 384-212.076 0-384-171.922-384-384s171.922-384 384-384c95.098 0 182.108 34.586 249.176 91.844-1-21.662 9.36-48.478 31.926-73.552l206.294-242.552c35.322-39.246 93.022-42.554 128.22-7.356s31.892 92.898-7.354 128.22zM384 320c-141.384 0-256 114.616-256 256s114.616 256 256 256 256-114.616 256-256-114.614-256-256-256z" />
<glyph unicode="&#xe987;" glyph-name="zoom-in" d="M992.262 88.604l-242.552 206.294c-25.074 22.566-51.89 32.926-73.552 31.926 57.256 67.068 91.842 154.078 91.842 249.176 0 212.078-171.922 384-384 384-212.076 0-384-171.922-384-384s171.922-384 384-384c95.098 0 182.108 34.586 249.176 91.844-1-21.662 9.36-48.478 31.926-73.552l206.294-242.552c35.322-39.246 93.022-42.554 128.22-7.356s31.892 92.898-7.354 128.22zM384 320c-141.384 0-256 114.616-256 256s114.616 256 256 256 256-114.616 256-256-114.614-256-256-256zM448 768h-128v-128h-128v-128h128v-128h128v128h128v128h-128z" />
<glyph unicode="&#xe9c3;" glyph-name="cloud-upload" d="M892.268 573.51c2.444 11.11 3.732 22.648 3.732 34.49 0 88.366-71.634 160-160 160-14.222 0-28.014-1.868-41.132-5.352-24.798 77.352-97.29 133.352-182.868 133.352-87.348 0-161.054-58.336-184.326-138.17-22.742 6.622-46.792 10.17-71.674 10.17-141.384 0-256-114.616-256-256 0-141.388 114.616-256 256-256h128v-192h256v192h224c88.366 0 160 71.632 160 160 0 78.72-56.854 144.162-131.732 157.51zM576 320v-192h-128v192h-160l224 224 224-224h-160z" />
<glyph unicode="&#xe9c4;" glyph-name="cloud-check" d="M892.268 445.51c2.442 11.108 3.732 22.646 3.732 34.49 0 88.366-71.634 160-160 160-14.224 0-28.014-1.868-41.134-5.352-24.796 77.352-97.288 133.352-182.866 133.352-87.348 0-161.054-58.336-184.326-138.17-22.742 6.62-46.792 10.17-71.674 10.17-141.384 0-256-114.616-256-256 0-141.382 114.616-256 256-256h608c88.366 0 160 71.632 160 160 0 78.718-56.854 144.16-131.732 157.51zM416 192l-160 160 64 64 96-96 224 224 64-64-288-288z" />
<glyph unicode="&#xea0a;" glyph-name="plus" d="M992 576h-352v352c0 17.672-14.328 32-32 32h-192c-17.672 0-32-14.328-32-32v-352h-352c-17.672 0-32-14.328-32-32v-192c0-17.672 14.328-32 32-32h352v-352c0-17.672 14.328-32 32-32h192c17.672 0 32 14.328 32 32v352h352c17.672 0 32 14.328 32 32v192c0 17.672-14.328 32-32 32z" />
<glyph unicode="&#xea0b;" glyph-name="minus" d="M0 544v-192c0-17.672 14.328-32 32-32h960c17.672 0 32 14.328 32 32v192c0 17.672-14.328 32-32 32h-960c-17.672 0-32-14.328-32-32z" />
<glyph unicode="&#xea7d;" glyph-name="share" d="M256 320c0 0 58.824 192 384 192v-192l384 256-384 256v-192c-256 0-384-159.672-384-320zM704 192h-576v384h125.876c10.094 11.918 20.912 23.334 32.488 34.18 43.964 41.19 96.562 72.652 156.114 93.82h-442.478v-640h832v268.624l-128-85.334v-55.29z" />
<glyph unicode="&#xea82;" glyph-name="share2" d="M864 256c-45.16 0-85.92-18.738-115.012-48.83l-431.004 215.502c1.314 8.252 2.016 16.706 2.016 25.328s-0.702 17.076-2.016 25.326l431.004 215.502c29.092-30.090 69.852-48.828 115.012-48.828 88.366 0 160 71.634 160 160s-71.634 160-160 160-160-71.634-160-160c0-8.622 0.704-17.076 2.016-25.326l-431.004-215.504c-29.092 30.090-69.852 48.83-115.012 48.83-88.366 0-160-71.636-160-160 0-88.368 71.634-160 160-160 45.16 0 85.92 18.738 115.012 48.828l431.004-215.502c-1.312-8.25-2.016-16.704-2.016-25.326 0-88.368 71.634-160 160-160s160 71.632 160 160c0 88.364-71.634 160-160 160z" />
</font>
</defs>
</svg>
