<svg width="8.348" height="8.349" xmlns="http://www.w3.org/2000/svg">

 <g>
  <title>background</title>
  <rect fill="none" id="canvas_background" height="10.349" width="10.348" y="-1" x="-1"/>
 </g>
 <g>
  <title>Layer 1</title>
  <g transform="rotate(90 4.159260272979736,4.155801296234132) " stroke="null" id="svg_1">
   <path transform="rotate(180 2.170517921447754,6.15174674987793) " stroke="null" d="m4.089181,6.912001c-0.171312,0.311731 -0.374452,0.339815 -0.628143,0.085188c-0.209693,-0.207821 -0.417514,-0.415642 -0.626271,-0.623462a0.446534,0.446534 0 0 0 -0.062721,-0.031828c-0.178801,0.187226 -0.363218,0.384749 -0.552316,0.576656q-0.51768,0.524233 -1.041912,1.042848c-0.147908,0.146972 -0.216246,0.146972 -0.361346,0s-0.303306,-0.301434 -0.454023,-0.453087s-0.144164,-0.214374 0,-0.361346c0.535466,-0.536402 1.071868,-1.070932 1.634482,-1.63261c-0.226543,-0.21999 -0.452151,-0.432492 -0.668397,-0.655291a0.598187,0.598187 0 0 1 -0.156334,-0.240585c-0.046806,-0.168503 0.030892,-0.274286 0.239649,-0.386622l2.674522,0l0.002808,2.680139z" id="Trazado_2459" fill="white"/>
   <path transform="rotate(180 6.1480021476745605,2.159855842590332) " stroke="null" d="m4.229339,1.399601c0.171312,-0.311731 0.374452,-0.340751 0.628143,-0.086124c0.21531,0.216246 0.427811,0.436236 0.666524,0.678694c0.192843,-0.201268 0.368835,-0.391302 0.550444,-0.574784q0.530786,-0.536402 1.066252,-1.067188c0.147908,-0.146972 0.216246,-0.146972 0.361346,0s0.303306,0.30237 0.454023,0.454023s0.144164,0.214374 0,0.361346c-0.53453,0.536402 -1.070932,1.070932 -1.630738,1.631674c0.224671,0.219054 0.449342,0.432492 0.664652,0.655291a0.597251,0.597251 0 0 1 0.156334,0.240585c0.046806,0.168503 -0.030892,0.274286 -0.239649,0.386622l-2.674522,0l-0.002808,-2.680139z" id="Trazado_2460" fill="white"/>
  </g>
 </g>
</svg>