<svg xmlns="http://www.w3.org/2000/svg" width="21" height="21" viewBox="0 0 21 21">
  <g id="Grupo_1607" data-name="Grupo 1607" transform="translate(-479.633 -1293.338)">
    <g id="Grupo_1606" data-name="Grupo 1606">
      <path id="Trazado_2408" data-name="Trazado 2408" d="M495.372,1306.021c-1.083,1.049-2.2,2.065-3.292,3.1a1.057,1.057,0,0,1-1.1.292c-1.753-.467-3.512-.908-5.267-1.363-.169-.044-.315-.1-.479.032-.954.742-1.915,1.475-2.946,2.267l3,.777c1.817.471,3.636.935,5.45,1.419a.677.677,0,0,0,.729-.207c1.6-1.521,3.217-3.025,4.829-4.535l1.8-1.682c-.686-.12-1.292-.21-1.89-.336A.813.813,0,0,0,495.372,1306.021Z" fill="none"/>
      <path id="Trazado_2409" data-name="Trazado 2409" d="M495.422,1301.139c-1.11,1.043-2.225,2.08-3.329,3.129a1.085,1.085,0,0,1-1.14.293c-1.735-.467-3.482-.889-5.218-1.353a.627.627,0,0,0-.629.13c-.745.586-1.5,1.156-2.251,1.735a1.706,1.706,0,0,0-.507.449,11.111,11.111,0,0,0,1.521.441c1.058.186,2.069.528,3.11.762,1.263.284,2.512.628,3.758.978a.659.659,0,0,0,.728-.2c.8-.777,1.63-1.533,2.446-2.3,1.37-1.284,2.739-2.57,4.183-3.925-.782-.135-1.47-.246-2.155-.375C495.694,1300.855,495.569,1301,495.422,1301.139Z" fill="none"/>
      <path id="Trazado_2410" data-name="Trazado 2410" d="M500.633,1296.138v-.467a1.479,1.479,0,0,0-1.223-.659q-4.549-.76-9.1-1.549c-.168-.029-.882-.125-1.069-.125-1.268.865-2.45,1.843-3.671,2.77-1.693,1.286-3.371,2.591-5.062,3.88a2.984,2.984,0,0,0-.88.91v.186a1.33,1.33,0,0,0,1.09.845c.874.192,1.737.437,2.639.668a4.337,4.337,0,0,1-.791.658c-.684.533-1.371,1.065-2.066,1.583a2.816,2.816,0,0,0-.872.913v.187a1.327,1.327,0,0,0,1.1.837c.874.195,1.737.438,2.686.682l-2.067,1.583c-.369.282-.725.583-1.11.843a2.429,2.429,0,0,0-.606.721v.187c.19.547.64.712,1.153.842,3.378.861,6.751,1.738,10.127,2.609.074.019.155.017.2.1h.373a1.845,1.845,0,0,0,.679-.446q3.94-3.7,7.89-7.4a3.585,3.585,0,0,0,.578-.652v-.466a1.326,1.326,0,0,0-1.115-.654c-.746-.118-1.49-.25-2.321-.39.593-.56,1.138-1.06,1.667-1.577a14.525,14.525,0,0,0,1.769-1.766v-.467c-.373-.719-1.11-.6-1.728-.741-.537-.12-1.084-.192-1.711-.3.906-.849,1.753-1.64,2.6-2.434A4.317,4.317,0,0,0,500.633,1296.138Zm-2.542,9.987-1.8,1.682c-1.612,1.51-3.228,3.014-4.829,4.535a.677.677,0,0,1-.729.207c-1.814-.484-3.633-.948-5.45-1.419l-3-.777c1.031-.792,1.992-1.525,2.946-2.267.164-.128.31-.076.479-.032,1.755.455,3.514.9,5.267,1.363a1.057,1.057,0,0,0,1.1-.292c1.094-1.039,2.209-2.055,3.292-3.1a.813.813,0,0,1,.829-.232C496.8,1305.915,497.4,1306.005,498.091,1306.125Zm0-4.849c-1.444,1.355-2.813,2.641-4.183,3.925-.816.765-1.641,1.521-2.446,2.3a.659.659,0,0,1-.728.2c-1.246-.35-2.495-.694-3.758-.978-1.041-.234-2.052-.576-3.11-.762a11.111,11.111,0,0,1-1.521-.441,1.706,1.706,0,0,1,.507-.449c.75-.579,1.506-1.149,2.251-1.735a.627.627,0,0,1,.629-.13c1.736.464,3.483.886,5.218,1.353a1.085,1.085,0,0,0,1.14-.293c1.1-1.049,2.219-2.086,3.329-3.129.147-.138.272-.284.517-.238C496.624,1301.03,497.312,1301.141,498.094,1301.276Zm-7.325,1.448-8.909-2.227,7.636-6.046,8.909,1.591Z"/>
    </g>
    <path id="Trazado_2411" data-name="Trazado 2411" d="M490.94,1312.906l-9.08-2.227,4.594-3.525,4.872,1.159,3.1-2.907,4.295.819Z"/>
  </g>
</svg>
