<svg xmlns="http://www.w3.org/2000/svg" width="24" height="24" viewBox="0 0 24 29">
  <g id="Grupo_1558" data-name="Grupo 1558" transform="translate(-86.921 -152.332)">
    <path id="Trazado_2350" data-name="Trazado 2350" d="M88.927,156.407l.08-.062a.4.4,0,0,0,.059.069c.05.041.085.128.172.073.1-.065-.008-.111-.017-.168a.542.542,0,0,1,.02-.157l0,.006a.043.043,0,0,0,.05-.05l0,0a.05.05,0,0,0,.056-.046l-.005,0a.381.381,0,0,0,.364-.289l.008,0a.19.19,0,0,1,.156.2c-.006.123,0,.246,0,.37s-.031.271.158.312c.035.007.06.065.089.1a3.767,3.767,0,0,0,.268.321.317.317,0,0,0,.541-.062c.088-.131.3-.158.3-.366.267-.081.367-.346.56-.509a.293.293,0,0,0-.018-.465,1.5,1.5,0,0,1-.375-.41.357.357,0,0,0-.508-.15.155.155,0,0,1-.244-.091l.007,0a.288.288,0,0,0,.333-.268l0,0,.052-.044h0a.372.372,0,0,1,.173.056,6.435,6.435,0,0,1,.917.812c.119.107.3.1.343-.048.064-.21.231-.31.379-.44.165-.144.43-.223.451-.474.014-.164.092-.187.207-.234a1.019,1.019,0,0,0,.554-.852c.209.13.322.106.415-.081.084-.169-.059-.236-.143-.33-.041-.046-.15-.064-.083-.157a.144.144,0,0,1,.208-.026,1.456,1.456,0,0,0,.21.1c.091.035.2.1.251-.046.04-.118.114-.262-.1-.3a1.05,1.05,0,0,1-.216-.087c-.073-.033-.148-.078-.127-.17s.1-.051.159-.056.111.007.151-.042l.1.01a.511.511,0,0,0,.051.127c.058.079.122.18.226.17a.158.158,0,0,0,.134-.205c-.013-.075.053-.056.094-.06.067-.008.141.02.2-.043l2.2-.01a.218.218,0,0,1,.178.085,4.5,4.5,0,0,0,4.319,1.349,4.124,4.124,0,0,0,2.161-1.027c.023-.021.056-.036.07-.062.2-.364.528-.355.88-.351,1.067.012,2.135,0,3.2,0,.1,0,.225-.034.293.09-.056.082-.048.2-.145.259a4.348,4.348,0,0,0-.624.589.661.661,0,0,0-.083.808.471.471,0,0,1,.045.419.559.559,0,0,0,.068.646c.437.432.868.869,1.3,1.3a.422.422,0,0,0,.641.027c.568-.562,1.163-1.1,1.69-1.7.885.632,1.709,1.344,2.559,2.021.45.359.894.726,1.35,1.078.137.107.177.175.051.329q-1.606,1.976-3.2,3.963c-.067.083-.118.138-.224.05-.443-.368-.89-.73-1.336-1.1.018-.2-.126-.209-.268-.219l-.009-.007c-.041-.137-.162-.175-.276-.224l-.008-.006a.081.081,0,0,0-.095-.083l0,0c0-.078-.051-.1-.117-.086a.07.07,0,0,1-.068-.057.7.7,0,0,0-.478-.406l0,0a.349.349,0,0,0-.215-.154l-.01-.007a.2.2,0,0,0-.23-.178l-.006,0-.043-.04-.006,0-.045-.042,0,0c-.007-.1-.045-.155-.154-.118l0,0c-.03-.1-.074-.077-.123-.015l0,0c-.206.106-.045.268-.045.394q-.014,5.768,0,11.533c0,.138,0,.247-.179.259a.186.186,0,0,0-.178.207c0,.1.087.133.179.149a.188.188,0,0,1,.17.234c-.018.132-.129.089-.205.089q-7.019,0-14.037,0c-.064,0-.16.039-.186-.045s.067-.114.114-.162c.324-.327.653-.649.975-.978.3-.306.293-.475.033-.8a5.709,5.709,0,0,0-.511-.509,4.386,4.386,0,0,0-.956-.868c-.006-.084-.017-.169-.017-.254q0-4.52,0-9.037c0-.076.033-.182-.032-.219-.09-.052-.145.06-.207.108-.337.261-.67.529-1,.794l-.06.042,0,0c-.084.006-.187-.038-.248.026-.2.21-.359.469-.687.5-.018,0-.04.047-.044.074-.014.107-.1.149-.168.209-.1.086-.235.158-.257.314l-.015,0a.066.066,0,0,0-.07.052l0,0a.049.049,0,0,0-.05.052l0,0c-.191-.009-.334.043-.339.269h0a.234.234,0,0,0-.235.065c-.191.261-.31.11-.443-.061a2.28,2.28,0,0,1-.1-.2c-.113-.172-.216-.362-.46-.377l-.012-.014c.062-.15-.047-.151-.143-.163l-.007-.009a.347.347,0,0,0-.286-.361h0c0-.124-.014-.242-.184-.233l0,0a.471.471,0,0,0-.2-.367c-.117-.083-.183-.157-.012-.251.041-.023.08-.058.052-.111-.012-.023-.062-.052-.068-.047-.18.15-.257-.006-.358-.112-.258-.272-.489-.566-.72-.862-.167-.213-.287-.475-.563-.585v0c-.036-.192.13-.257.227-.368.143-.162.4-.2.461-.45h0a.494.494,0,0,0,.434-.358h0A1.091,1.091,0,0,0,88.927,156.407Zm9.126-3.22-.005,0,.006,0a.532.532,0,0,0,.114.252,4.255,4.255,0,0,0,.939,1.063,3.343,3.343,0,0,0,2.942.753,3.821,3.821,0,0,0,2.206-1.471,2.288,2.288,0,0,0,.39-.658c-.34.179-.642.356-.957.5a5.385,5.385,0,0,1-4.375.165C98.875,153.622,98.477,153.38,98.053,153.187Z"/>
    <path id="Trazado_2351" data-name="Trazado 2351" d="M111.766,154.776c-.527.6-1.122,1.138-1.69,1.7a.422.422,0,0,1-.641-.027c-.436-.432-.867-.869-1.3-1.3a.559.559,0,0,1-.068-.646.471.471,0,0,0-.045-.419.661.661,0,0,1,.083-.808,4.348,4.348,0,0,1,.624-.589c.1-.058.089-.177.145-.259q1.365,1.094,2.73,2.188A2.287,2.287,0,0,1,111.766,154.776Z"/>
    <path id="Trazado_2352" data-name="Trazado 2352" d="M94.774,152.35c-.04.049-.1.037-.151.042s-.141-.026-.159.056.054.137.127.17a1.05,1.05,0,0,0,.216.087c.218.042.144.186.1.3-.05.148-.16.081-.251.046a1.456,1.456,0,0,1-.21-.1.144.144,0,0,0-.208.026c-.067.093.042.111.083.157.084.094.227.161.143.33-.093.187-.206.211-.415.081a1.019,1.019,0,0,1-.554.852c-.115.047-.193.07-.207.234-.021.251-.286.33-.451.474-.148.13-.315.23-.379.44-.045.147-.224.155-.343.048a6.435,6.435,0,0,0-.917-.812.372.372,0,0,0-.173-.056,7.794,7.794,0,0,1,.984-.8c.579-.479,1.163-.952,1.74-1.432a.528.528,0,0,1,.442-.151C94.385,152.37,94.581,152.31,94.774,152.35Z"/>
    <path id="Trazado_2353" data-name="Trazado 2353" d="M93.99,168.959a4.386,4.386,0,0,1,.956.868,5.709,5.709,0,0,1,.511.509c.26.329.265.5-.033.8-.322.329-.651.651-.975.978-.047.048-.136.09-.114.162s.122.045.186.045q7.018,0,14.037,0c.076,0,.187.043.205-.089a.188.188,0,0,0-.17-.234c-.092-.016-.177-.049-.179-.149a.186.186,0,0,1,.178-.207c.175-.012.179-.121.179-.259q0-5.766,0-11.533c0-.126-.161-.288.045-.394q0,2.887.006,5.775,0,3.483,0,6.966c0,.151-.062.18-.195.179-.475-.006-.951,0-1.426,0H94.4c-.414,0-.411,0-.414-.4C93.976,170.969,93.957,169.964,93.99,168.959Z"/>
    <path id="Trazado_2354" data-name="Trazado 2354" d="M90.633,155.038a.155.155,0,0,0,.244.091.357.357,0,0,1,.508.15,1.5,1.5,0,0,0,.375.41.293.293,0,0,1,.018.465c-.193.163-.293.428-.56.509,0,.208-.21.235-.3.366a.317.317,0,0,1-.541.062,3.767,3.767,0,0,1-.268-.321c-.029-.036-.054-.094-.089-.1-.189-.041-.16-.181-.158-.312s-.006-.247,0-.37a.19.19,0,0,0-.156-.2A6.917,6.917,0,0,1,90.633,155.038Z"/>
    <path id="Trazado_2355" data-name="Trazado 2355" d="M87.052,158.2c.276.11.4.372.563.585.231.3.462.59.72.862.1.106.178.262.358.112.006-.005.056.024.068.047.028.053-.011.088-.052.111-.171.094-.105.168.012.251a.471.471,0,0,1,.2.367c-.424-.443-.773-.948-1.162-1.419A7.684,7.684,0,0,1,87.052,158.2Z"/>
    <path id="Trazado_2356" data-name="Trazado 2356" d="M91.266,161.521c.022-.156.153-.228.257-.314.073-.06.154-.1.168-.209,0-.027.026-.072.044-.074.328-.034.488-.293.687-.5.061-.064.164-.02.248-.026A14.212,14.212,0,0,1,91.266,161.521Z"/>
    <path id="Trazado_2357" data-name="Trazado 2357" d="M89.56,161.317c.244.015.347.205.46.377a2.28,2.28,0,0,0,.1.2c.133.171.252.322.443.061a.234.234,0,0,1,.235-.065c0,.007,0,.017-.009.022-.42.419-.425.423-.8-.025A3.581,3.581,0,0,1,89.56,161.317Z"/>
    <path id="Trazado_2358" data-name="Trazado 2358" d="M87.739,157.378c-.058.247-.318.288-.461.45-.1.111-.263.176-.227.368-.167-.088-.173-.182-.018-.291A5.246,5.246,0,0,1,87.739,157.378Z"/>
    <path id="Trazado_2359" data-name="Trazado 2359" d="M95.571,152.349c-.055.063-.129.035-.2.043-.041,0-.107-.015-.094.06a.158.158,0,0,1-.134.205c-.1.01-.168-.091-.226-.17a.511.511,0,0,1-.051-.127A3.907,3.907,0,0,1,95.571,152.349Z"/>
    <path id="Trazado_2360" data-name="Trazado 2360" d="M88.927,156.407a1.091,1.091,0,0,1-.753.612A4.478,4.478,0,0,1,88.927,156.407Z"/>
    <path id="Trazado_2361" data-name="Trazado 2361" d="M89.241,156.162a.542.542,0,0,0-.02.157c.009.057.12.1.017.168-.087.055-.122-.032-.172-.073a.4.4,0,0,1-.059-.069A.372.372,0,0,1,89.241,156.162Z"/>
    <path id="Trazado_2362" data-name="Trazado 2362" d="M109.648,160.032a.7.7,0,0,1,.478.406A1.556,1.556,0,0,1,109.648,160.032Z"/>
    <path id="Trazado_2363" data-name="Trazado 2363" d="M88.173,157.019a.494.494,0,0,1-.434.358A1.307,1.307,0,0,1,88.173,157.019Z"/>
    <path id="Trazado_2364" data-name="Trazado 2364" d="M90.8,161.893c0-.226.148-.278.339-.269A.925.925,0,0,1,90.8,161.893Z"/>
    <path id="Trazado_2365" data-name="Trazado 2365" d="M89.112,160.77a.347.347,0,0,1,.286.361A1.319,1.319,0,0,1,89.112,160.77Z"/>
    <path id="Trazado_2366" data-name="Trazado 2366" d="M89.7,155.789a.381.381,0,0,1-.364.289A1.123,1.123,0,0,1,89.7,155.789Z"/>
    <path id="Trazado_2367" data-name="Trazado 2367" d="M90.973,154.768a.288.288,0,0,1-.333.268A.9.9,0,0,1,90.973,154.768Z"/>
    <path id="Trazado_2368" data-name="Trazado 2368" d="M110.7,160.9c.142.01.286.015.268.219A.834.834,0,0,1,110.7,160.9Z"/>
    <path id="Trazado_2369" data-name="Trazado 2369" d="M88.927,160.536c.17-.009.181.109.184.233A.546.546,0,0,1,88.927,160.536Z"/>
    <path id="Trazado_2370" data-name="Trazado 2370" d="M110.416,160.672c.114.049.235.087.276.224A.76.76,0,0,1,110.416,160.672Z"/>
    <path id="Trazado_2371" data-name="Trazado 2371" d="M109.195,159.691a.2.2,0,0,1,.23.178A.53.53,0,0,1,109.195,159.691Z"/>
    <path id="Trazado_2372" data-name="Trazado 2372" d="M89.4,161.14c.1.012.205.013.143.163A.339.339,0,0,1,89.4,161.14Z"/>
    <path id="Trazado_2373" data-name="Trazado 2373" d="M108.939,159.481c.109-.037.147.021.154.118A.19.19,0,0,1,108.939,159.481Z"/>
    <path id="Trazado_2374" data-name="Trazado 2374" d="M109.435,159.876a.349.349,0,0,1,.215.154A.257.257,0,0,1,109.435,159.876Z"/>
    <path id="Trazado_2375" data-name="Trazado 2375" d="M110.194,160.495c.066-.009.114.008.117.086A.143.143,0,0,1,110.194,160.495Z"/>
    <path id="Trazado_2376" data-name="Trazado 2376" d="M108.818,159.464c.049-.062.093-.082.123.015Z"/>
    <path id="Trazado_2377" data-name="Trazado 2377" d="M110.313,160.583a.081.081,0,0,1,.095.083A.118.118,0,0,1,110.313,160.583Z"/>
    <path id="Trazado_2378" data-name="Trazado 2378" d="M91.029,154.726l-.052.044C90.979,154.737,91,154.727,91.029,154.726Z"/>
    <path id="Trazado_2379" data-name="Trazado 2379" d="M89.341,156.076a.05.05,0,0,1-.056.046A.053.053,0,0,1,89.341,156.076Z"/>
    <path id="Trazado_2380" data-name="Trazado 2380" d="M89.287,156.118a.043.043,0,0,1-.05.05Z"/>
    <path id="Trazado_2381" data-name="Trazado 2381" d="M109.1,159.6l.045.042Z"/>
    <path id="Trazado_2382" data-name="Trazado 2382" d="M109.146,159.647l.043.04Z"/>
    <path id="Trazado_2383" data-name="Trazado 2383" d="M92.672,160.393l.06-.042Z"/>
    <path id="Trazado_2384" data-name="Trazado 2384" d="M91.181,161.577a.066.066,0,0,1,.07-.052A.068.068,0,0,1,91.181,161.577Z"/>
    <path id="Trazado_2385" data-name="Trazado 2385" d="M91.136,161.626a.049.049,0,0,1,.05-.052Z"/>
    <path id="Trazado_2386" data-name="Trazado 2386" d="M98.054,153.186l-.007,0,.005,0Z"/>
  </g>
</svg>
